<svg width="36" height="28" fill="none" xmlns="http://www.w3.org/2000/svg" class="Style_label__uCKcJ">
	<path d="M0 6a6 6 0 0 1 6-6h24a6 6 0 0 1 6 6v16a6 6 0 0 1-6 6H6a6 6 0 0 1-6-6V6Z" fill="#F39DBD">
	</path>
	<g clip-path="url(#change_svg__a)" fill="#E83274">
		<path d="M18.363 12.36v.804c0 .256.05.47.151.637a.72.72 0 0 0 .626.363c.254 0 .506-.124.75-.367l2.656-2.657a1.498 1.498 0 0 0 0-2.116L19.89 6.367C19.646 6.123 19.394 6 19.14 6c-.387 0-.777.31-.777 1v.73a7.892 7.892 0 0 0-7.36 6.908.469.469 0 0 0 .844.334 6.65 6.65 0 0 1 5.347-2.717c.39 0 .781.035 1.169.105Z">
		</path>
		<path d="M24.695 12.869a.469.469 0 0 0-.55.159 6.65 6.65 0 0 1-5.347 2.716c-.39 0-.781-.035-1.169-.104v-.805c0-.69-.39-1-.777-1-.254 0-.506.124-.75.368l-2.657 2.657a1.498 1.498 0 0 0 0 2.116l2.657 2.657c.244.243.496.367.75.367.386 0 .777-.31.777-1v-.73a7.892 7.892 0 0 0 7.36-6.908.469.469 0 0 0-.294-.493Z">
		</path>
	</g>
	<defs>
		<clipPath id="change_svg__a">
			<path fill="#fff" transform="translate(10 6)" d="M0 0h16v16H0z">
			</path>
		</clipPath>
	</defs>
</svg>
