<svg width="36" height="28" fill="none" xmlns="http://www.w3.org/2000/svg" class="Style_label__uCKcJ">
	<path d="M0 6a6 6 0 0 1 6-6h24a6 6 0 0 1 6 6v16a6 6 0 0 1-6 6H6a6 6 0 0 1-6-6V6Z" fill="#FFBD95">
	</path>
	<g clip-path="url(#discount_svg__a)" fill="#FF6422">
		<path d="M24.936 14.207a.47.47 0 0 1 0-.414l.597-1.22c.332-.68.069-1.49-.6-1.845l-1.2-.637a.47.47 0 0 1-.243-.336l-.235-1.338a1.389 1.389 0 0 0-1.57-1.14l-1.345.19a.469.469 0 0 1-.394-.128l-.976-.944a1.389 1.389 0 0 0-1.94 0l-.976.944a.469.469 0 0 1-.394.128l-1.346-.19a1.389 1.389 0 0 0-1.569 1.14l-.235 1.338a.469.469 0 0 1-.243.336l-1.2.637a1.389 1.389 0 0 0-.6 1.844l.597 1.22a.469.469 0 0 1 0 .415l-.597 1.221a1.39 1.39 0 0 0 .6 1.845l1.2.636c.13.07.218.191.243.336l.235 1.338a1.388 1.388 0 0 0 1.57 1.14l1.345-.19a.469.469 0 0 1 .394.128l.976.945a1.39 1.39 0 0 0 1.94 0l.976-.945a.47.47 0 0 1 .394-.128l1.346.19a1.389 1.389 0 0 0 1.569-1.14l.235-1.338a.47.47 0 0 1 .243-.336l1.2-.636a1.39 1.39 0 0 0 .6-1.845l-.597-1.22Zm-8.782-4.36c.933 0 1.692.76 1.692 1.692 0 .933-.759 1.692-1.692 1.692a1.694 1.694 0 0 1-1.691-1.692c0-.933.759-1.692 1.691-1.692Zm-.873 7.524a.46.46 0 0 1-.652 0 .462.462 0 0 1 0-.652l6.09-6.09a.461.461 0 1 1 .652.652l-6.09 6.09Zm4.565.782a1.694 1.694 0 0 1-1.692-1.692c0-.933.759-1.692 1.692-1.692.933 0 1.692.759 1.692 1.692 0 .933-.76 1.692-1.692 1.692Z">
		</path>
		<path d="M19.846 15.691a.77.77 0 0 0 0 1.538.77.77 0 0 0 0-1.538ZM16.154 10.77a.77.77 0 1 0 .002 1.54.77.77 0 0 0-.002-1.54Z">
		</path>
	</g>
	<defs>
		<clipPath id="discount_svg__a">
			<path fill="#fff" transform="translate(10 6)" d="M0 0h16v16H0z">
			</path>
		</clipPath>
	</defs>
</svg>
