<svg width="36" height="28" fill="none" xmlns="http://www.w3.org/2000/svg" class="Style_label__uCKcJ">
	<path d="M0 6a6 6 0 0 1 6-6h24a6 6 0 0 1 6 6v16a6 6 0 0 1-6 6H6a6 6 0 0 1-6-6V6Z" fill="#A2AEDB">
	</path>
	<g clip-path="url(#gift_svg__a)" fill="#3855B3">
		<path d="M19.875 14.469V22h3.75c.775 0 1.438-.63 1.438-1.406v-6.125h-5.188ZM10.938 14.469v6.125c0 .775.63 1.406 1.406 1.406h3.781v-7.531h-5.188Z">
		</path>
		<path d="M24.594 9.75h-1.919a2.32 2.32 0 0 0 .481-1.406A2.346 2.346 0 0 0 20.813 6C19.177 6 18.703 7.178 18 8.963 17.297 7.178 16.823 6 15.187 6a2.346 2.346 0 0 0-2.343 2.344c0 .53.183 1.013.48 1.406h-1.918c-.775 0-1.406.63-1.406 1.406v.969c0 .775.63 1.406 1.406 1.406h4.719V9.75h-.938c-.775 0-1.406-.63-1.406-1.406 0-.776.631-1.406 1.406-1.406.961 0 1.235.576 1.953 2.398l.166.414h-.244V22h1.875V9.75h-.243l.166-.414c.718-1.822.992-2.399 1.953-2.399a1.408 1.408 0 0 1 0 2.813h-.938v3.781h4.719c.775 0 1.406-.63 1.406-1.406v-.969c0-.775-.63-1.406-1.406-1.406Z">
		</path>
	</g>
	<defs>
		<clipPath id="gift_svg__a">
			<path fill="#fff" transform="translate(10 6)" d="M0 0h16v16H0z">
			</path>
		</clipPath>
	</defs>
</svg>
